# xmcd
#
# Track frame offsets: 
#        150
#        20677
#        33665
#        51697
#        67350
#        92132
#        115660
#        132430
#        145962
#        168062
#        181775
#        197615
#        220237
#        249252
#
# Disc length: 3658 seconds
#
# Revision: 0
# Processed by: cddbd v1.5PL3 Copyright (c) Steve Scherf et al.
# Submitted via: ExactAudioCopy v0.95a3
#
DISCID=d10e480e
DTITLE=Johan Jansen - Head Back In The Clouds
DYEAR=2002
DGENRE=Country
TTITLE0=Don't Blame It On Love
TTITLE1=Conceiving
TTITLE2=Crazy From The Heart
TTITLE3=Everything
TTITLE4=Running Out Of You
TTITLE5=Stand Tall
TTITLE6=Love O.D.
TTITLE7=Live Of Love
TTITLE8=Head Back In The Clouds
TTITLE9=You Me
TTITLE10=J.J. Jam
TTITLE11=Changes
TTITLE12=Change Of Heart
TTITLE13=Running Dub (End Titles)
EXTD=
EXTT0=
EXTT1=
EXTT2=
EXTT3=
EXTT4=
EXTT5=
EXTT6=
EXTT7=
EXTT8=
EXTT9=
EXTT10=
EXTT11=
EXTT12=
EXTT13=
PLAYORDER=
